<svg preserveAspectRatio="none" width="100%" height="100%" overflow="visible" style="display: block;" viewBox="0 0 2.33333 10.5" fill="none" xmlns="http://www.w3.org/2000/svg">
<g id="Container">
<path id="Icon" d="M1.16667 10.5C0.845833 10.5 0.571181 10.3858 0.342708 10.1573C0.114236 9.92882 0 9.65417 0 9.33333C0 9.0125 0.114236 8.73785 0.342708 8.50937C0.571181 8.2809 0.845833 8.16667 1.16667 8.16667C1.4875 8.16667 1.76215 8.2809 1.99063 8.50937C2.2191 8.73785 2.33333 9.0125 2.33333 9.33333C2.33333 9.65417 2.2191 9.92882 1.99063 10.1573C1.76215 10.3858 1.4875 10.5 1.16667 10.5V10.5M0 7V0H2.33333V7H0V7" fill="var(--fill-0, white)"/>
</g>
</svg>
