<svg preserveAspectRatio="none" width="100%" height="100%" overflow="visible" style="display: block;" viewBox="0 0 24 24" fill="none" xmlns="http://www.w3.org/2000/svg">
<g id="SVG">
<path id="Vector" d="M14.752 11.168L11.555 9.036C11.2478 8.83107 10.8528 8.81207 10.5274 8.9866C10.202 9.16112 9.99921 9.50075 10 9.87V14.133C9.99995 14.5019 10.203 14.8408 10.5282 15.0149C10.8535 15.1889 11.2481 15.1697 11.555 14.965L14.752 12.833C15.0302 12.6475 15.1972 12.3353 15.1972 12.001C15.1972 11.6667 15.0302 11.3545 14.752 11.169V11.168" stroke="var(--stroke-0, #538100)" stroke-width="2"/>
<path id="Vector_2" d="M21 12C21 16.9672 16.9672 21 12 21C7.03276 21 3 16.9672 3 12C3 7.03276 7.03276 3 12 3C16.9672 3 21 7.03276 21 12V12" stroke="var(--stroke-0, #538100)" stroke-width="2"/>
</g>
</svg>
