<svg preserveAspectRatio="none" width="100%" height="100%" overflow="visible" style="display: block;" viewBox="0 0 20 20" fill="none" xmlns="http://www.w3.org/2000/svg">
<g id="SVG">
<path id="Vector" d="M9.049 2.927C9.349 2.006 10.652 2.006 10.951 2.927L12.021 6.219C12.1551 6.63026 12.5384 6.90868 12.971 6.909H16.433C17.402 6.909 17.804 8.149 17.021 8.719L14.221 10.753C13.8703 11.0074 13.7233 11.4588 13.857 11.871L14.927 15.163C15.227 16.084 14.172 16.851 13.387 16.281L10.587 14.247C10.2366 13.9926 9.76237 13.9926 9.412 14.247L6.612 16.281C5.828 16.851 4.774 16.084 5.073 15.163L6.143 11.871C6.2767 11.4588 6.12974 11.0074 5.779 10.753L2.98 8.72C2.197 8.15 2.6 6.91 3.568 6.91H7.029C7.46194 6.91011 7.84579 6.63161 7.98 6.22L9.05 2.928L9.049 2.927" fill="var(--fill-0, #99CC33)"/>
</g>
</svg>
