<svg preserveAspectRatio="none" width="100%" height="100%" overflow="visible" style="display: block;" viewBox="0 0 12.659 13.9249" fill="none" xmlns="http://www.w3.org/2000/svg">
<g id="Container">
<path id="Icon" d="M1 5.5C1 5.93333 1.0875 6.34375 1.2625 6.73125C1.4375 7.11875 1.6875 7.45833 2.0125 7.75C2.00417 7.70833 2 7.67083 2 7.6375C2 7.60417 2 7.56667 2 7.525C2 7.25833 2.05 7.00833 2.15 6.775C2.25 6.54167 2.39583 6.32917 2.5875 6.1375L4 4.75L5.4125 6.1375C5.60417 6.32917 5.75 6.54167 5.85 6.775C5.95 7.00833 6 7.25833 6 7.525C6 7.56667 6 7.60417 6 7.6375C6 7.67083 5.99583 7.70833 5.9875 7.75C6.3125 7.45833 6.5625 7.11875 6.7375 6.73125C6.9125 6.34375 7 5.93333 7 5.5C7 5.08333 6.92292 4.68958 6.76875 4.31875C6.61458 3.94792 6.39167 3.61667 6.1 3.325V3.325C5.93333 3.43333 5.75833 3.51458 5.575 3.56875C5.39167 3.62292 5.20417 3.65 5.0125 3.65C4.49583 3.65 4.04792 3.47917 3.66875 3.1375C3.28958 2.79583 3.07083 2.375 3.0125 1.875V1.875C2.6875 2.15 2.4 2.43542 2.15 2.73125C1.9 3.02708 1.68958 3.32708 1.51875 3.63125C1.34792 3.93542 1.21875 4.24583 1.13125 4.5625C1.04375 4.87917 1 5.19167 1 5.5V5.5M4 6.15L3.2875 6.85C3.19583 6.94167 3.125 7.04583 3.075 7.1625C3.025 7.27917 3 7.4 3 7.525C3 7.79167 3.09792 8.02083 3.29375 8.2125C3.48958 8.40417 3.725 8.5 4 8.5C4.275 8.5 4.51042 8.40417 4.70625 8.2125C4.90208 8.02083 5 7.79167 5 7.525C5 7.39167 4.975 7.26875 4.925 7.15625C4.875 7.04375 4.80417 6.94167 4.7125 6.85L4 6.15V6.15M4 0V1.65C4 1.93333 4.09792 2.17083 4.29375 2.3625C4.48958 2.55417 4.72917 2.65 5.0125 2.65C5.1625 2.65 5.30208 2.61875 5.43125 2.55625C5.56042 2.49375 5.675 2.4 5.775 2.275L6 2C6.61667 2.35 7.10417 2.8375 7.4625 3.4625C7.82083 4.0875 8 4.76667 8 5.5C8 6.61667 7.6125 7.5625 6.8375 8.3375C6.0625 9.1125 5.11667 9.5 4 9.5C2.88333 9.5 1.9375 9.1125 1.1625 8.3375C0.3875 7.5625 0 6.61667 0 5.5C0 4.425 0.360417 3.40417 1.08125 2.4375C1.80208 1.47083 2.775 0.658333 4 0V0" fill="var(--fill-0, #64748B)"/>
</g>
</svg>
