<svg preserveAspectRatio="none" width="100%" height="100%" overflow="visible" style="display: block;" viewBox="0 0 24 24" fill="none" xmlns="http://www.w3.org/2000/svg">
<g id="Background">
<rect width="24" height="24" rx="12" fill="var(--fill-0, #99CC33)"/>
<path id="Icon" d="M15.8994 7.70312C13.9893 10.4297 12.0264 12.9531 10.0107 15.2734C9.8584 15.4492 9.72559 15.5371 9.6123 15.5371C9.4834 15.5371 9.25098 15.1973 8.91504 14.5176C8.37207 13.4199 8.10059 12.7637 8.10059 12.5488C8.10059 12.4707 8.15332 12.3789 8.25879 12.2734C8.48535 12.0352 8.64551 11.916 8.73926 11.916C8.8252 11.916 8.91699 12.0527 9.01465 12.3262C9.27246 13.0215 9.54395 13.6406 9.8291 14.1836C11.8057 12.1836 13.7607 9.94336 15.6943 7.46289L15.8994 7.70312V7.70312" fill="var(--fill-0, #538100)"/>
</g>
</svg>
