<svg preserveAspectRatio="none" width="100%" height="100%" overflow="visible" style="display: block;" viewBox="0 0 24 24" fill="none" xmlns="http://www.w3.org/2000/svg">
<g id="Background">
<rect width="24" height="24" rx="12" fill="var(--fill-0, #99CC33)"/>
<path id="Icon" d="M17.1992 6.9375C14.6523 10.5729 12.0352 13.9375 9.34766 17.0312C9.14453 17.2656 8.96745 17.3828 8.81641 17.3828C8.64453 17.3828 8.33464 16.9297 7.88672 16.0234C7.16276 14.5599 6.80078 13.6849 6.80078 13.3984C6.80078 13.2943 6.87109 13.1719 7.01172 13.0312C7.3138 12.7135 7.52734 12.5547 7.65234 12.5547C7.76693 12.5547 7.88932 12.737 8.01953 13.1016C8.36328 14.0286 8.72526 14.8542 9.10547 15.5781C11.7409 12.9115 14.3477 9.92448 16.9258 6.61719L17.1992 6.9375V6.9375" fill="var(--fill-0, #538100)"/>
</g>
</svg>
