<svg preserveAspectRatio="none" width="100%" height="100%" overflow="visible" style="display: block;" viewBox="0 0 32 32" fill="none" xmlns="http://www.w3.org/2000/svg">
<g id="SVG" clip-path="url(#clip0_1137_22)">
<path id="Vector" d="M16 5.80533C17.4672 4.14194 19.8108 3.56026 21.8855 4.34454C23.9603 5.12881 25.333 7.11531 25.333 9.33333C25.333 11.5514 23.9603 13.5379 21.8855 14.3221C19.8108 15.1064 17.4672 14.5247 16 12.8613M20 28H4V26.6667C4 22.2513 7.58468 18.6667 12 18.6667C16.4153 18.6667 20 22.2513 20 26.6667V28L16 5.80533M16 5.80533H24V4.472C24.0004 1.61367 22.4758 -1.02771 20.0005 -2.45705C17.5252 -3.88639 14.4754 -3.8865 12 -2.45733M17.3333 9.33333C17.3333 12.2769 14.9435 14.6667 12 14.6667C9.05645 14.6667 6.66667 12.2769 6.66667 9.33333C6.66667 6.38979 9.05645 4 12 4C14.9435 4 17.3333 6.38979 17.3333 9.33333L16 5.80533" stroke="var(--stroke-0, #538100)" stroke-width="2.66667" stroke-linecap="round" stroke-linejoin="round"/>
</g>
<defs>
<clipPath id="clip0_1137_22">
<rect width="32" height="32" fill="white"/>
</clipPath>
</defs>
</svg>
