<svg preserveAspectRatio="none" width="100%" height="100%" overflow="visible" style="display: block;" viewBox="0 0 32 32" fill="none" xmlns="http://www.w3.org/2000/svg">
<g id="SVG">
<path id="Vector" d="M16 10.6667C13.7907 10.6667 12 11.86 12 13.3333C12 14.8067 13.7907 16 16 16C16 16 20 17.1933 20 18.6667C20 18.6667 18.2093 21.3333 16 21.3333M16 10.6667C17.48 10.6667 18.7733 11.2027 19.4653 12M16 10.6667V9.33333M16 10.6667V21.3333M16 21.3333V22.6667M16 21.3333C14.52 21.3333 13.2267 20.7973 12.5347 20M28 16C28 22.623 22.623 28 16 28C9.37702 28 4 22.623 4 16C4 9.37702 9.37702 4 16 4C22.623 4 28 9.37702 28 16L16 10.6667" stroke="var(--stroke-0, #538100)" stroke-width="2.66667" stroke-linecap="round" stroke-linejoin="round"/>
</g>
</svg>
