<svg preserveAspectRatio="none" width="100%" height="100%" overflow="visible" style="display: block;" viewBox="0 0 15.1908 12.659" fill="none" xmlns="http://www.w3.org/2000/svg">
<g id="Container">
<path id="Icon" d="M5.65 9.9L4.95 9.2L6.725 7.425L2.475 3.175L0.7 4.95L0 4.25L0.7 3.525L0 2.825L1.05 1.775L0.35 1.05L1.05 0.35L1.775 1.05L2.825 0L3.525 0.7L4.25 0L4.95 0.7L3.175 2.475L7.425 6.725L9.2 4.95L9.9 5.65L9.2 6.375L9.9 7.075L8.85 8.125L9.55 8.85L8.85 9.55L8.125 8.85L7.075 9.9L6.375 9.2L5.65 9.9V9.9" fill="var(--fill-0, #64748B)"/>
</g>
</svg>
